<svg xmlns="http://www.w3.org/2000/svg" xmlns:xlink="http://www.w3.org/1999/xlink" width="113" height="113" viewBox="0 0 113 113">
  <defs>
    <clipPath id="clip-path">
      <rect id="Rectangle_138" data-name="Rectangle 138" width="113" height="113" transform="translate(0 0.491)" fill="#0b77c2"/>
    </clipPath>
  </defs>
  <g id="Group_127" data-name="Group 127" transform="translate(0 -0.491)">
    <g id="Group_126" data-name="Group 126" transform="translate(0 0)" clip-path="url(#clip-path)">
      <path id="Path_46" data-name="Path 46" d="M56.745,113.491A56.745,56.745,0,1,0,0,56.745a56.748,56.748,0,0,0,56.745,56.745M49.652,78.025a10.527,10.527,0,0,0,7.519-3.142L83.047,47.694a7.219,7.219,0,0,0,0-10.129,7.035,7.035,0,0,0-10.03,0L49.652,62.221l-9.171-10.47a7.035,7.035,0,0,0-10.03,0,7.219,7.219,0,0,0,0,10.129l11.675,13a10.515,10.515,0,0,0,7.519,3.142Z" transform="translate(0 -0.001)" fill="#0b77c2" fill-rule="evenodd"/>
    </g>
  </g>
</svg>
