<svg width="285" height="274" viewBox="0 0 285 274" fill="none" xmlns="http://www.w3.org/2000/svg">
<path d="M32.7911 159.474C0.193845 218.214 78.3716 261.719 139.012 226.708C244.661 196.132 257.297 101.067 231.458 56.3122C205.619 11.5577 188.674 69.475 129.437 103.675C70.1999 137.876 56.4698 92.8284 32.7911 159.474Z" fill="#65A5E1" fill-opacity="0.2"/>
<path d="M69.1455 165.574C69.1455 169.256 72.12 172.23 75.8017 172.23H195.198C198.88 172.23 201.854 169.256 201.854 165.574V117.108C201.854 80.4574 172.151 50.7539 135.5 50.7539C98.849 50.7539 69.1455 80.4574 69.1455 117.108V165.574ZM84.1221 117.108C84.1221 88.7361 107.128 65.7305 135.5 65.7305C163.872 65.7305 186.878 88.7361 186.878 117.108V157.254H113.035V121.685C113.035 120.541 112.099 119.604 110.955 119.604H101.803C100.659 119.604 99.7226 120.541 99.7226 121.685V157.254H84.1221V117.108ZM74.1169 64.5864L82.354 56.3493C82.9988 55.7045 82.9988 54.6437 82.354 53.9988L68.2303 39.8751C67.9175 39.5654 67.4952 39.3917 67.055 39.3917C66.6149 39.3917 66.1925 39.5654 65.8798 39.8751L57.6427 48.1122C57.333 48.425 57.1592 48.8473 57.1592 49.2875C57.1592 49.7276 57.333 50.1499 57.6427 50.4627L71.7664 64.5864C72.4112 65.2312 73.4513 65.2312 74.1169 64.5864ZM213.399 48.1122L205.162 39.8751C204.849 39.5654 204.427 39.3917 203.987 39.3917C203.546 39.3917 203.124 39.5654 202.811 39.8751L188.688 53.9988C188.378 54.3116 188.204 54.7339 188.204 55.1741C188.204 55.6142 188.378 56.0366 188.688 56.3493L196.925 64.5864C197.569 65.2312 198.63 65.2312 199.275 64.5864L213.399 50.4627C214.044 49.7971 214.044 48.757 213.399 48.1122V48.1122ZM202.062 185.543H68.9375C65.2557 185.543 62.2812 188.517 62.2812 192.199V197.191C62.2812 198.107 63.0301 198.855 63.9453 198.855H207.055C207.97 198.855 208.719 198.107 208.719 197.191V192.199C208.719 188.517 205.744 185.543 202.062 185.543ZM129.676 37.4414H141.324C142.239 37.4414 142.988 36.6926 142.988 35.7773V15.8086C142.988 14.8934 142.239 14.1445 141.324 14.1445H129.676C128.761 14.1445 128.012 14.8934 128.012 15.8086V35.7773C128.012 36.6926 128.761 37.4414 129.676 37.4414Z" fill="#804FB3"/>
</svg>
