<svg width="88" height="88" viewBox="0 0 88 88" fill="none" xmlns="http://www.w3.org/2000/svg">
<path d="M55 82.5H46.75C45.2918 82.4986 43.8937 81.9186 42.8625 80.8875C41.8314 79.8564 41.2515 78.4583 41.25 77V63.25H46.75V77H55V63.25H60.5V52.25C60.4993 51.5209 60.2093 50.8218 59.6937 50.3063C59.1782 49.7907 58.4791 49.5007 57.75 49.5H33.77L28.27 33H11C10.2709 33.0007 9.57183 33.2907 9.05626 33.8063C8.54069 34.3218 8.25073 35.0209 8.25 35.75V52.25H13.75V77H24.75V57.75H30.25V77C30.2485 78.4583 29.6686 79.8564 28.6375 80.8875C27.6063 81.9186 26.2082 82.4986 24.75 82.5H13.75C12.2918 82.4986 10.8937 81.9186 9.86252 80.8875C8.83139 79.8564 8.25146 78.4583 8.25 77V57.75C6.79176 57.7486 5.39366 57.1686 4.36252 56.1375C3.33139 55.1064 2.75146 53.7082 2.75 52.25V35.75C2.75218 33.5626 3.62208 31.4655 5.16878 29.9188C6.71548 28.3721 8.81263 27.5022 11 27.5H28.27C29.4242 27.4993 30.5493 27.862 31.4857 28.5368C32.4221 29.2116 33.1222 30.1641 33.4867 31.2593L37.73 44H57.75C59.9374 44.0022 62.0345 44.8721 63.5812 46.4188C65.1279 47.9655 65.9978 50.0626 66 52.25V63.25C65.9985 64.7082 65.4186 66.1064 64.3875 67.1375C63.3563 68.1686 61.9582 68.7486 60.5 68.75V77C60.4985 78.4583 59.9186 79.8564 58.8875 80.8875C57.8563 81.9186 56.4582 82.4986 55 82.5ZM77 82.5H71.5V52.25H79.75V35.75C79.7493 35.0209 79.4593 34.3218 78.9437 33.8063C78.4282 33.2907 77.7291 33.0007 77 33H66V27.5H77C79.1874 27.5022 81.2845 28.3721 82.8312 29.9188C84.3779 31.4655 85.2478 33.5626 85.25 35.75V52.25C85.2485 53.7082 84.6686 55.1064 83.6375 56.1375C82.6063 57.1686 81.2082 57.7486 79.75 57.75H77V82.5ZM19.25 24.75C17.0744 24.75 14.9477 24.1049 13.1387 22.8962C11.3298 21.6875 9.91989 19.9695 9.08733 17.9595C8.25476 15.9495 8.03692 13.7378 8.46136 11.604C8.8858 9.47022 9.93345 7.51021 11.4718 5.97183C13.0102 4.43345 14.9702 3.3858 17.104 2.96137C19.2378 2.53693 21.4495 2.75477 23.4595 3.58733C25.4695 4.41989 27.1875 5.82979 28.3962 7.63873C29.6049 9.44767 30.25 11.5744 30.25 13.75C30.2464 16.6663 29.0863 19.462 27.0242 21.5242C24.962 23.5863 22.1663 24.7464 19.25 24.75ZM19.25 8.25001C18.1622 8.25001 17.0988 8.57257 16.1944 9.17692C15.2899 9.78127 14.5849 10.6403 14.1687 11.6452C13.7524 12.6502 13.6435 13.7561 13.8557 14.823C14.0679 15.8899 14.5917 16.8699 15.3609 17.6391C16.1301 18.4083 17.1101 18.9321 18.177 19.1443C19.2439 19.3565 20.3498 19.2476 21.3548 18.8313C22.3598 18.4151 23.2187 17.7101 23.8231 16.8056C24.4274 15.9012 24.75 14.8378 24.75 13.75C24.7485 12.2918 24.1686 10.8937 23.1375 9.86253C22.1063 8.83139 20.7082 8.25146 19.25 8.25001ZM68.75 24.75C66.5744 24.75 64.4477 24.1049 62.6387 22.8962C60.8298 21.6875 59.4199 19.9695 58.5873 17.9595C57.7548 15.9495 57.5369 13.7378 57.9614 11.604C58.3858 9.47022 59.4334 7.51021 60.9718 5.97183C62.5102 4.43345 64.4702 3.3858 66.604 2.96137C68.7378 2.53693 70.9495 2.75477 72.9595 3.58733C74.9695 4.41989 76.6875 5.82979 77.8962 7.63873C79.1049 9.44767 79.75 11.5744 79.75 13.75C79.7464 16.6663 78.5863 19.462 76.5242 21.5242C74.462 23.5863 71.6663 24.7464 68.75 24.75ZM68.75 8.25001C67.6622 8.25001 66.5988 8.57257 65.6944 9.17692C64.7899 9.78127 64.0849 10.6403 63.6687 11.6452C63.2524 12.6502 63.1435 13.7561 63.3557 14.823C63.5679 15.8899 64.0917 16.8699 64.8609 17.6391C65.6301 18.4083 66.6101 18.9321 67.677 19.1443C68.7439 19.3565 69.8498 19.2476 70.8548 18.8313C71.8598 18.4151 72.7187 17.7101 73.3231 16.8056C73.9274 15.9012 74.25 14.8378 74.25 13.75C74.2485 12.2918 73.6686 10.8937 72.6375 9.86253C71.6063 8.83139 70.2082 8.25146 68.75 8.25001Z" fill="white"/>
<path d="M50.875 41.25C48.9714 41.25 47.1105 40.6855 45.5276 39.6279C43.9448 38.5703 42.7112 37.0671 41.9827 35.3083C41.2542 33.5496 41.0636 31.6143 41.4349 29.7473C41.8063 27.8802 42.723 26.1652 44.0691 24.8191C45.4152 23.473 47.1302 22.5563 48.9973 22.1849C50.8643 21.8136 52.7996 22.0042 54.5583 22.7327C56.3171 23.4612 57.8203 24.6948 58.8779 26.2776C59.9355 27.8605 60.5 29.7214 60.5 31.625C60.4971 34.1768 59.4821 36.6233 57.6777 38.4277C55.8733 40.2321 53.4268 41.2471 50.875 41.25ZM50.875 27.5C50.0592 27.5 49.2616 27.7419 48.5833 28.1952C47.9049 28.6485 47.3762 29.2927 47.064 30.0464C46.7518 30.8002 46.6701 31.6296 46.8293 32.4298C46.9884 33.2299 47.3813 33.9649 47.9582 34.5418C48.5351 35.1187 49.2701 35.5116 50.0703 35.6707C50.8704 35.8299 51.6998 35.7482 52.4536 35.436C53.2073 35.1238 53.8516 34.5951 54.3048 33.9167C54.7581 33.2384 55 32.4409 55 31.625C54.9985 30.5314 54.5635 29.4831 53.7902 28.7098C53.0169 27.9365 51.9686 27.5015 50.875 27.5Z" fill="white"/>
</svg>
