<svg id="Group_5" data-name="Group 5" xmlns="http://www.w3.org/2000/svg" xmlns:xlink="http://www.w3.org/1999/xlink" width="99.574" height="147.965" viewBox="0 0 99.574 147.965">
  <defs>
    <clipPath id="clip-path">
      <rect id="Rectangle_7" data-name="Rectangle 7" width="99.574" height="147.965" fill="#0b77c2"/>
    </clipPath>
  </defs>
  <g id="Group_4" data-name="Group 4" clip-path="url(#clip-path)">
    <path id="Path_5" data-name="Path 5" d="M118.728,111.867c0,10.88-.065,21.759.053,32.637a5.8,5.8,0,0,1-3,5.525,97.265,97.265,0,0,1-24.139,11.024c-2.921.881-3.913-.084-3.9-2.924.038-7.877-.111-15.758.043-23.633.1-4.869-1.018-9.189-4.51-12.671-1.461-1.456-1.257-2.589-.207-4.223,6.587-10.259,5.16-20.148-3.94-28.085-.759-.662-1.677-1.232-1.818-2.292-1.374-10.35,1.2-22.108,15.756-22.371,3.75-.068,7.507-.105,11.253.032A14.491,14.491,0,0,1,118.7,79.6c.086,10.753.021,21.508.023,32.263" transform="translate(-19.207 -16.164)" fill="#0b77c2"/>
    <path id="Path_6" data-name="Path 6" d="M.039,125.444c0-7.992-.041-15.984.011-23.975.05-7.5,4.9-12.378,12.417-12.549,3.245-.074,6.493,0,9.739-.014a11.553,11.553,0,0,1,8.609,3.912c2.221,2.3,2.807,4.388.689,7.518-4.948,7.312-4.822,15.074-.062,22.5,1.455,2.269,1.721,3.705-.287,5.737-2.836,2.871-3.93,6.562-3.908,10.612q.061,11.614-.013,23.226c-.027,4.129-.606,4.588-4.3,3.267A91.2,91.2,0,0,1,2.814,155.79,5.627,5.627,0,0,1,0,150.543c.1-8.365.038-16.732.038-25.1" transform="translate(0 -22.176)" fill="#0b77c2"/>
    <path id="Path_7" data-name="Path 7" d="M98.95,0a19.977,19.977,0,0,1,19.312,19.965A20.046,20.046,0,0,1,97.949,39.359C87.279,39.24,78.88,30.3,79.036,19.228A19.643,19.643,0,0,1,98.95,0" transform="translate(-19.717 0)" fill="#0b77c2"/>
    <path id="Path_8" data-name="Path 8" d="M72.221,166.72c0,4.371-.08,8.744.031,13.112.065,2.5-.957,3.584-3.427,3.863a84.127,84.127,0,0,1-19.049-.432c-1.958-.224-2.762-1.454-2.754-3.356.033-8.867.044-17.733.086-26.6a8.177,8.177,0,0,1,.3-1.843c1.3-5.424,6-7.361,16.008-6.605,5.486.414,8.335,3.146,8.731,8.374.028.373.037.748.037,1.123q0,6.182,0,12.363h.039" transform="translate(-11.731 -36.1)" fill="#0b77c2"/>
    <path id="Path_9" data-name="Path 9" d="M17.425,65.632A16.194,16.194,0,0,1,1.335,49.305c0-8.476,7.689-16.077,16.166-15.988s15.895,7.646,16,16.265c.1,8.487-7.453,16.029-16.072,16.05" transform="translate(-0.333 -8.312)" fill="#0b77c2"/>
    <path id="Path_10" data-name="Path 10" d="M71.7,115.054a11.868,11.868,0,0,1-11.37,12.024A12.03,12.03,0,0,1,48.155,115.4a11.9,11.9,0,0,1,11.81-11.97A11.773,11.773,0,0,1,71.7,115.054" transform="translate(-12.013 -25.805)" fill="#0b77c2"/>
  </g>
</svg>
