<svg xmlns="http://www.w3.org/2000/svg" width="21.379" height="21.359" viewBox="0 0 21.379 21.359">
  <path id="Path_24" data-name="Path 24" d="M10.661.094A10.656,10.656,0,0,1,21.379,10.679,10.779,10.779,0,0,1,10.584,21.453,10.714,10.714,0,0,1,0,10.708,10.589,10.589,0,0,1,10.661.094m1.677,3.7c-2.249-.017-3.469,1.113-3.554,3.369C8.736,8.42,8.868,9.587,7.015,9.5c-.964-.046-.7.855-.739,1.443-.047.641.12,1.175.9,1.073,1.654-.218,1.62.837,1.583,1.97-.035,1.058.042,2.121-.019,3.176-.064,1.113.212,1.67,1.5,1.644,1.218-.025,1.393-.605,1.357-1.589-.042-1.2.014-2.4-.015-3.6-.022-.926.017-1.681,1.3-1.606,1.255.074.88-1.039,1.035-1.7.2-.868-.492-.881-1.054-.879-.862,0-1.311-.306-1.277-1.241.031-.868-.044-1.795,1.071-2,.84-.156,1.718-.058,1.553-1.376-.172-1.373-1.267-.762-1.871-1.017" transform="translate(-0.001 -0.094)" fill="#fff"/>
</svg>