<svg width="26" height="26" viewBox="0 0 26 26" fill="none" xmlns="http://www.w3.org/2000/svg">
<path d="M25.5 12.9214C25.5 19.7787 19.9064 25.3428 13 25.3428C6.09358 25.3428 0.5 19.7787 0.5 12.9214C0.5 6.0641 6.09358 0.5 13 0.5C19.9064 0.5 25.5 6.0641 25.5 12.9214Z" stroke="white"/>
<g clip-path="url(#clip0_256_355)">
<path d="M11.5317 19V12.9H10V10.7037H11.5317V8.82783C11.5317 7.35372 12.4364 6 14.5212 6C15.3653 6 15.9894 6.08522 15.9894 6.08522L15.9402 8.13617C15.9402 8.13617 15.3037 8.12965 14.6091 8.12965C13.8573 8.12965 13.7368 8.49449 13.7368 9.10004V10.7037H16L15.9015 12.9H13.7368V19H11.5317Z" fill="white"/>
</g>
<defs>
<clipPath id="clip0_256_355">
<rect width="6" height="13" fill="white" transform="translate(10 7)"/>
</clipPath>
</defs>
</svg>
