<svg id="Group_7" data-name="Group 7" xmlns="http://www.w3.org/2000/svg" xmlns:xlink="http://www.w3.org/1999/xlink" width="111.058" height="143.932" viewBox="0 0 111.058 143.932">
  <defs>
    <clipPath id="clip-path">
      <rect id="Rectangle_8" data-name="Rectangle 8" width="111.058" height="143.932" fill="#0b77c2"/>
    </clipPath>
  </defs>
  <g id="Group_6" data-name="Group 6" clip-path="url(#clip-path)">
    <path id="Path_11" data-name="Path 11" d="M55.522,193.591q-25.366,0-50.731-.012c-4.022-.006-5.3-1.254-4.617-5.06,1.834-10.29,4.165-20.44,8.313-30.125,2.679-6.257,7.229-10.294,13.334-12.858A124.14,124.14,0,0,1,36.2,140.723a5.185,5.185,0,0,1,5.79,1.541c3.187,3.358,6.525,6.574,9.8,9.847,3.727,3.723,3.728,3.723,7.566-.109,3.277-3.273,6.613-6.49,9.8-9.846a4.972,4.972,0,0,1,5.5-1.477A90.583,90.583,0,0,1,91.7,146.638a22.01,22.01,0,0,1,10.526,10.933c4.462,9.789,6.846,20.163,8.636,30.688.72,4.231-.421,5.322-4.929,5.326q-25.2.026-50.408.006" transform="translate(0 -49.663)" fill="#0b77c2"/>
    <path id="Path_12" data-name="Path 12" d="M97.34,45.942c-.416,3.2-1.22,9.061-1.916,14.931a50.9,50.9,0,0,0-.385,6.755c.08,5.1,1.64,6.811,6.729,7.516,2.666.369,3.363,1.988,2.986,4.363-.686,4.317-5.042,8.392-9.548,8.158a50.013,50.013,0,0,1-22.642-6.82c-2.575-1.492-7.365-3.557-10.507-3.979-2.049-.276-3.749-.191-4.917,1.96a8.451,8.451,0,0,1-3.975,3.2A62,62,0,0,1,34.7,87.622a10.3,10.3,0,0,1-11.914-8.385c-.465-2.518.34-3.876,3.048-4.131,4.456-.419,6-2.13,6.277-6.559.355-5.642-.813-11.149-1.563-16.68a57.72,57.72,0,0,1,4.068-30.65C37.66,13.972,42.862,8.357,48.842,3.553,53.383-.1,58.66-1.265,64.235,1.618a5.731,5.731,0,0,0,4.39.235C75.593-.126,82.3,1.834,86,8.106c6.385,10.8,11.539,22.169,11.336,37.836m-29.9-23.374c-2.231,7.273-7.627,9.917-14.46,10.652a21.264,21.264,0,0,0-5.262,1.5c-5.184,2-5.567,2.721-5.673,8.354a24.635,24.635,0,0,0,1.547,9.18c3.288,8.761,9.325,14.618,18.837,15.542S79.55,64.51,83.669,56.05c5.859-12.033,4.762-14.407-5.1-19.889a19.783,19.783,0,0,1-9.223-10.8c-.321-.865-.329-1.951-1.909-2.793" transform="translate(-8.017 0)" fill="#0b77c2"/>
  </g>
</svg>
