<svg width="286" height="255" viewBox="0 0 286 255" fill="none" xmlns="http://www.w3.org/2000/svg">
<path d="M255.5 126.445C321.309 164.5 268.808 249 188.809 249C66.8085 278 0 194.33 0 137.444C0 80.5589 49.8517 126.444 128 126.444C206.148 126.444 194 75.9443 255.5 126.445Z" fill="#65A5E1" fill-opacity="0.2"/>
<path d="M237.858 123.334C251.027 98.2472 224.259 80.85 189.262 72.3181C191.895 66.3334 192.658 58.4994 185.233 51.0194C175.711 41.4459 182.04 27.5 182.04 27.5C182.04 27.5 162.054 45.9353 174.673 58.6472C179.327 63.3325 181.751 67.4472 182.909 70.8881C173.248 68.8967 163.465 67.5485 153.625 66.8525C156.564 58.8638 156.85 48.8297 147.589 39.2219C134.912 26.0528 143.354 6.875 143.354 6.875C143.354 6.875 116.703 32.2231 133.53 49.6994C139.672 56.0725 142.907 61.6825 144.475 66.385C134.045 66.0722 124.008 66.5294 115.091 67.7772C116.153 62.6381 115.266 56.7291 109.598 51.0228C100.076 41.4494 106.408 27.5 106.408 27.5C106.408 27.5 86.4187 45.9353 99.0412 58.6472C102.994 62.6278 105.311 66.1822 106.642 69.2794C105.136 69.6094 103.675 69.9669 102.269 70.3553C58.8122 66.2887 39.8578 75.2675 48.5169 92.8813C33.4056 107.993 39.0844 125.238 57.994 138.435C67.8597 179.07 70.4 213.125 144.705 213.125C211.007 213.125 220.168 186.003 228.381 151.291C253.021 146.386 247.772 134.575 237.858 123.334V123.334ZM231.715 119.274C223.462 136.874 187.643 150.123 144.705 150.123C101.771 150.123 65.9519 136.874 57.695 119.274C57.5197 118.752 57.3512 118.209 57.1828 117.679C61.1153 107.704 73.8959 99.0481 91.8465 93.2525C87.6287 97.3294 86.7522 103.417 97.8519 105.552C101.028 106.164 109.749 104.046 105.937 93.225C105.404 91.7125 104.534 90.6984 103.465 90.0866C115.799 87.2644 129.8 85.6384 144.705 85.6384C146.376 85.6384 148.015 85.6969 149.662 85.7347C141.061 88.7872 134.045 98.1922 151.607 100.966C155.485 101.578 166.131 99.4606 161.477 88.6394C161.07 87.6749 160.418 86.8335 159.586 86.1988C176.041 87.4088 190.95 90.5781 203.002 95.1466C192.404 94.5553 180.647 101.087 199.475 110.282C203.514 112.255 215.786 114.067 214.098 102.118C213.976 101.255 213.671 100.427 213.204 99.6909C222.839 104.768 229.56 110.925 232.224 117.679L231.715 119.274Z" fill="#804FB3"/>
<path d="M121.815 126.641C132.928 126.641 140.339 116.593 146.145 112.661C154.258 107.161 174.656 105.016 156.692 104.582C139.652 104.173 118.614 118.006 104.555 117.054C81.2763 115.472 105.119 126.641 121.815 126.641V126.641ZM145.829 147.17C149.755 147.926 160.545 145.307 155.825 131.924C150.494 116.782 118.219 141.855 145.829 147.17ZM84.7241 114.049C80.9738 108.756 75.5357 102.042 73.2841 105.538C70.2075 110.32 69.2382 119.941 71.4725 120.367C88.99 123.726 87.7628 118.336 84.7241 114.049V114.049ZM186.56 116.194C189.719 112.282 183.411 102.867 179.362 104.514C173.023 107.092 169.369 105.346 166.585 109.257C160.064 118.418 182.267 121.505 186.56 116.194ZM184.587 127.404C180.043 125.4 181.115 132.113 174.402 126.727C169.596 122.87 159.256 132.598 166.076 139.205C173.666 146.558 175.687 139.569 178.877 140.157C185.36 141.35 196.508 132.663 184.587 127.404ZM109.024 129.7C106.655 127.37 103.479 130.182 101.685 133.612C99.9075 132.739 98.4603 132.536 98.4603 132.536C97.1025 128.666 93.0635 126.012 93.0635 126.012C93.0635 126.012 93.4313 130.037 93.9641 132C89.5022 130.415 89.3647 122.44 89.3647 122.44C89.3647 122.44 86.3707 124.231 86.6422 127.273C81.73 123.31 77.5466 125.163 77.5466 125.163C77.5466 125.163 83.7788 128.669 84.6382 131.034C81.1388 131.306 79.0969 132.516 77.9075 135.331C77.911 135.355 84.8238 132.041 89.9388 134.434C87.921 136.084 88.9247 140.205 88.9247 140.205C93.6857 135.159 97.4875 135.699 100.53 136.603C100.162 138.146 100.186 139.556 100.839 140.412C106.116 147.348 124.496 145.788 129.432 140.659C135.41 134.454 118.8 139.322 109.024 129.7" fill="#804FB3"/>
<path d="M122.007 103.572C120.443 106.714 120.433 109.086 122.241 111.554C122.265 111.561 122.97 103.929 127.648 100.767C128.03 103.345 132.079 104.596 132.079 104.596C128.841 93.1288 138.294 92.5306 138.249 88.416C133.238 88.8388 130.391 92.4825 130.391 92.4825C126.373 91.661 122.018 93.7613 122.018 93.7613C122.018 93.7613 125.665 95.511 127.621 96.0644C123.97 99.0791 117.054 95.1019 117.054 95.1019C117.054 95.1019 117.054 98.5944 119.804 99.9178C113.881 102.101 113.324 106.638 113.324 106.638C113.324 106.638 119.532 103.094 122.007 103.572V103.572ZM209.839 119.233C211.262 116.531 209.186 113.723 209.186 113.723C209.186 113.723 205.992 121.034 201.266 120.783C202.51 119.175 204.401 115.6 204.401 115.6C204.401 115.6 199.65 116.504 196.907 119.553C196.907 119.553 192.452 118.319 188.176 120.959C190.589 124.293 198.543 119.147 202.761 130.292C202.761 130.292 205.27 126.878 204.043 124.578C209.688 124.334 214.796 130.048 214.813 130.027C214.792 126.968 213.376 125.07 210.244 123.475C211.949 121.622 219.051 120.78 219.051 120.78C219.051 120.78 215.903 117.463 209.839 119.233" fill="#804FB3"/>
</svg>
