<svg xmlns="http://www.w3.org/2000/svg" width="165.832" height="75.634" viewBox="0 0 165.832 75.634">
  <g id="Group_22" data-name="Group 22" transform="translate(-382.463 -109.917)">
    <path id="Path_1" data-name="Path 1" d="M427.725,131.352c1.561-3.03.2-6.608-.195-7.621a12.381,12.381,0,0,0-4.471-5.53,17.479,17.479,0,0,0-10.01-3.782c-1.589-.019-3.067.25-4.517-.744-1.3-.892-1.153-1.813-2.332-2.714a5.941,5.941,0,0,0-6.46-.177c-3.03,1.915-3.42,6.413-2.017,7.909.967,1.032,3.327,1.218,3.764,2.6.056.167.186.669.5.744.279.056.409-.27.772-.418.678-.27,1.236.455,2.5.808,1.069.3,1.375-.028,1.71.2,1.785,1.264-4.005,12.965-4.721,12.686-.205-.084.372-1.041-.168-1.766-.957-1.311-4.015.3-5.892-1.274a1.7,1.7,0,0,0-1-.548c-.706-.056-1.1.558-1.878,1.106a5.126,5.126,0,0,1-3.736.967c-1.348-.269-1.4-1.189-2.389-1.273-1.626-.139-3.216,2.268-3.913,3.792-1.245,2.7-.753,5.437-.474,8.058.874,8.058,5.957,16.618,10.14,16.274,1.683-.139,2.37-2.129,3.82-1.794,2.909.679,3.355,9.387,3.578,13.532a22.78,22.78,0,0,1-.056,3.913c-.437,3.838-1.784,4.665-1.236,5.892,1.85,4.1,12.231,4.768,16.163.214a7.566,7.566,0,0,0,1.356-2.5c2.575-7.686-6.617-13.792-4.024-19.657.65-1.487,2.072-2.993,1.691-5.111a6.989,6.989,0,0,0-1.245-2.956c-.707-.864-1.655-1.45-1.618-2.379a1.7,1.7,0,0,1,.2-.651c1.153-2.128,13.244-1.106,14.295-4.061.26-.716-.13-1.664-.66-2.965-.558-1.385-1.245-2.091-1.32-3.541a5.457,5.457,0,0,1,.112-1.291C424.537,134.642,426.657,133.4,427.725,131.352Zm-19.164,6.525A6.2,6.2,0,0,1,406,139.6a4,4,0,0,1-1,.158c-.474.009-1.2.037-1.5-.344-.372-.483.093-1.4.223-1.654,1.069-2.137,3.123-1.831,5.01-4.089,1.059-1.264,1.143-2.24,1.385-2.175C410.6,131.622,410.634,135.506,408.561,137.877ZM421,143.044c-.558,1.356-3.049,1.682-3.486,1.04-.576-.836,1.878-3.9,2.853-3.587.344.121.53.66.632,1A2.451,2.451,0,0,1,421,143.044Z" transform="translate(0 0)" fill="#fff38d"/>
    <text id="Muntaha" transform="translate(437.296 146.521)" fill="#fff" font-size="22" font-family="SegoeUI, Segoe UI"><tspan x="0" y="0">Muntaha</tspan></text>
    <text id="Hunger_Free_Ethiopia" data-name="Hunger Free Ethiopia" transform="translate(438.565 177.727)" fill="#fff" font-size="8" font-family="SegoeUI, Segoe UI"><tspan x="0" y="0">Hunger Free Ethiopia</tspan></text>
    <text id="Foundation" transform="translate(437.296 166.389)" fill="#fff" font-size="22" font-family="SegoeUI, Segoe UI"><tspan x="0" y="0">Foundation</tspan></text>
  </g>
</svg>