<svg xmlns="http://www.w3.org/2000/svg" xmlns:xlink="http://www.w3.org/1999/xlink" width="88.782" height="80.138" viewBox="0 0 88.782 80.138"><defs><clipPath id="a"><rect width="88.782" height="80.138" fill="#0b77c2"/></clipPath></defs><g clip-path="url(#a)"><path d="M95.562,56.233A3.3,3.3,0,0,1,92.353,54c-.333-.9-.506-1.854-.751-2.784-1.071-4.061-1.481-4.3-5.7-3.989-1.022.074-1.328.7-1.724,1.351-.864,1.419-1.639,2.893-2.545,4.285a3.181,3.181,0,0,1-4.541,1.214A28.076,28.076,0,0,1,74.6,52.625c-1.828-1.179-2.354-2.733-1.267-4.709.169-.307.337-.613.509-.918,2.432-4.288,2.409-4.267-.768-7.771a1.459,1.459,0,0,0-1.782-.563c-1.077.353-2.2.574-3.3.853-4.4,1.116-7.549-1.988-6.5-6.423a2.965,2.965,0,0,1,1.973-2.273c.742-.255,1.5-.453,2.261-.657,3.717-1,4.6-2.269,4.39-6.138a1.58,1.58,0,0,0-1-1.373c-.827-.493-1.659-.976-2.492-1.457-4.3-2.487-4.661-5.43-1.06-8.929a3.3,3.3,0,0,1,3.894-.578,22.959,22.959,0,0,1,2.28,1.293c3.122,1.816,4.775,1.538,7.078-1.067.592-.669.36-1.311.211-1.96-.33-1.449-.747-2.877-1.108-4.319-.775-3.1,0-4.267,3.418-5.172,3.788-1,4.972-.486,5.872,2.577q.406,1.383.78,2.776c.9,3.343,1.53,3.739,5.045,3.7C94.1,9.509,94.355,8.84,94.742,8.2c.952-1.57,1.794-3.209,2.8-4.746,1.593-2.446,3.019-2.5,6.518-.37,2.6,1.578,3.076,2.973,1.785,5.368a19.723,19.723,0,0,1-2,3.38c-1.515,1.814-1.284,3.182.319,4.878a2.706,2.706,0,0,0,3.159.933c1.758-.525,3.526-1.048,5.322-1.411,2.809-.568,4.007.47,4.888,4.026.783,3.16.178,4.492-2.5,5.324a21.133,21.133,0,0,1-3.806.973c-2.448.278-3.378,1.448-3.243,3.948.065,1.212.237,1.912,1.321,2.477,1.7.888,3.371,1.86,4.99,2.9,2.411,1.544,2.544,2.922.717,6.03-1.79,3.044-3.1,3.584-5.64,2.274a16.171,16.171,0,0,1-2.711-1.592c-2.1-1.676-3.847-1.717-5.694.515-.753.911-1.22,1.485-.8,2.674.5,1.394.776,2.865,1.141,4.305.877,3.456.207,4.633-3.167,5.541-.843.227-1.7.4-2.58.608M88.778,20.38a7.983,7.983,0,0,0-7.909,8.06A8.018,8.018,0,0,0,96.9,28.225a7.963,7.963,0,0,0-8.122-7.845" transform="translate(-29.062 0)" fill="#0b77c2"/><path d="M3.2,79.685a9.193,9.193,0,0,1,2.4.427c2.824,1.366,3.8-.72,5.038-2.5.483-.695.127-1.125-.2-1.629-.477-.733-.966-1.458-1.449-2.187-2.187-3.3-1.257-5.808,2.566-6.839a2.591,2.591,0,0,1,3,1.061,16.23,16.23,0,0,1,1.886,2.831c.791,1.868,2.07,1.518,3.626,1.317,1.67-.216,1.9-1.221,2.091-2.49.1-.69.3-1.365.44-2.05.809-3.929,3.127-5,6.614-3.042a2.665,2.665,0,0,1,1.384,3.105c-.222,1.115-.455,2.227-.714,3.333-.282,1.209-.577,2.248.9,3.116,1.339.789,2.384,1.246,3.678.053a15.957,15.957,0,0,1,2.159-1.479c3.07-2.005,4.242-1.724,6.146,1.326,1.186,1.9,1.035,3.439-.941,4.672-.89.556-1.754,1.154-2.62,1.747-.9.618-2.086.99-1.523,2.583.466,1.32.572,2.753,2.5,2.765.858.005,1.706.4,2.572.479,4.4.407,4.431,2.794,3.027,6.647a2.369,2.369,0,0,1-2.841,1.375c-1.123-.17-2.23-.436-3.349-.638-1.036-.187-2.149-.992-2.892.613-.637,1.374-1.921,2.583-.322,4.148a11.117,11.117,0,0,1,1.323,1.949c2,3.056,1.709,4.152-1.456,6.049-1.929,1.157-3.465.916-4.661-1.05a7.846,7.846,0,0,0-1.04-1.51c-.752-.752-.727-2.558-2.592-1.87-1.637.6-3.815.464-3.676,3.151a6.511,6.511,0,0,1-.344,1.53,4.157,4.157,0,0,1-7.061,2.434c-1.294-1.1-1.116-2.5-.594-3.855.939-2.447.263-4-2.2-5.061-1.008-.435-1.687-.677-2.563.045a19.116,19.116,0,0,1-1.739,1.173c-3.108,2.029-6.008.708-6.648-3.01-.318-1.845.843-2.805,2.22-3.449,2.255-1.054,3.018-2.465,2.133-4.952-.412-1.158-.786-1.809-2.011-1.959A23.283,23.283,0,0,1,2.116,87.4C.051,86.833-.194,85.284.105,83.458c.442-2.7,1.342-3.789,3.09-3.773m25.948,7.658a6.4,6.4,0,1,0-6.5,6.389,6.336,6.336,0,0,0,6.5-6.389" transform="translate(0 -30.175)" fill="#0b77c2"/></g></svg>