<svg xmlns="http://www.w3.org/2000/svg" xmlns:xlink="http://www.w3.org/1999/xlink" width="115" height="108" viewBox="0 0 115 108">
  <defs>
    <clipPath id="clip-path">
      <rect id="Rectangle_136" data-name="Rectangle 136" width="115" height="108" transform="translate(0 -0.407)" fill="#0b77c2"/>
    </clipPath>
  </defs>
  <g id="Group_123" data-name="Group 123" transform="translate(0 0.407)">
    <g id="Group_122" data-name="Group 122" transform="translate(0 0)" clip-path="url(#clip-path)">
      <path id="Path_44" data-name="Path 44" d="M73.769,97.95c-3.207,2.92-5.739,5.093-7.245,6.349a14.37,14.37,0,0,1-18.307,0c-1.506-1.255-4.032-3.443-7.245-6.356C35.662,93.086,30.332,87.9,25.332,82.491a160.143,160.143,0,0,1-14.3-17.525,51.822,51.822,0,0,1-11-28.788A34.784,34.784,0,0,1,10.354,10.1,35.341,35.341,0,0,1,57.392,7.949,35.312,35.312,0,0,1,104.437,10.1a34.781,34.781,0,0,1,10.3,25.969,51.616,51.616,0,0,1-10.99,28.86A157.439,157.439,0,0,1,89.4,82.505c-5.007,5.38-10.316,10.6-15.639,15.452Z" transform="translate(-0.002 0)" fill="#0b77c2" fill-rule="evenodd"/>
    </g>
  </g>
</svg>
