<svg xmlns="http://www.w3.org/2000/svg" width="21.352" height="21.358" viewBox="0 0 21.352 21.358">
  <path id="Path_27" data-name="Path 27" d="M72.351,10.618A10.546,10.546,0,0,1,83.073.095,10.659,10.659,0,0,1,93.7,10.77,10.768,10.768,0,0,1,83.027,21.452,10.659,10.659,0,0,1,72.351,10.618M82.923,4.03c-.706,0-1.413,0-2.119,0-3.3.022-4.489,1.175-4.515,4.409q-.019,2.331,0,4.662c.029,3.108,1.276,4.366,4.357,4.412.777.012,1.554,0,2.331,0,6.294,0,6.8-.494,6.8-6.689,0-6.412-.389-6.8-6.849-6.8" transform="translate(-72.351 -0.094)" fill="#fff"/>
  <path id="Path_28" data-name="Path 28" d="M95.479,17.491c0,5.736-.013,5.748-5.77,5.748-5.511,0-5.511,0-5.511-5.56,0-5.715,0-5.715,5.744-5.715,5.538,0,5.538,0,5.538,5.526m-5.622-3.569A3.646,3.646,0,1,0,93.518,17.6a3.792,3.792,0,0,0-3.661-3.679m3.691.668a.575.575,0,0,0,.513-.757.824.824,0,0,0-.555-.511.57.57,0,0,0-.639.652.586.586,0,0,0,.681.616" transform="translate(-79.171 -6.928)" fill="#fff"/>
  <path id="Path_29" data-name="Path 29" d="M96.573,21.782c-.081,1.487-.785,2.481-2.3,2.539A2.281,2.281,0,0,1,91.7,21.884a2.268,2.268,0,0,1,2.39-2.429,2.338,2.338,0,0,1,2.486,2.327" transform="translate(-83.488 -11.24)" fill="#fff"/>
</svg>