<svg width="26" height="26" viewBox="0 0 26 26" fill="none" xmlns="http://www.w3.org/2000/svg">
<path fill-rule="evenodd" clip-rule="evenodd" d="M11.5006 11.0652H13.6671V12.1444C13.9792 11.5237 14.7795 10.9661 15.9817 10.9661C18.2865 10.9661 18.8337 12.2016 18.8337 14.4684V18.6667H16.5003V14.9847C16.5003 13.6937 16.1882 12.9657 15.3937 12.9657C14.2918 12.9657 13.8339 13.7503 13.8339 14.9841V18.6667H11.5006V11.0652ZM7.49949 18.5675H9.83283V10.9661H7.49949V18.5675ZM10.1671 8.4875C10.1672 8.68308 10.1284 8.87672 10.053 9.05718C9.97756 9.23763 9.86704 9.4013 9.72783 9.53867C9.44573 9.81903 9.06388 9.97596 8.66616 9.975C8.26914 9.97473 7.88817 9.8182 7.60566 9.53925C7.46695 9.40142 7.3568 9.23756 7.28153 9.05709C7.20625 8.87661 7.16733 8.68305 7.16699 8.4875C7.16699 8.09258 7.32449 7.71458 7.60624 7.43575C7.88851 7.15643 8.26963 6.99983 8.66674 7C9.06458 7 9.44608 7.15692 9.72783 7.43575C10.009 7.71458 10.1671 8.09258 10.1671 8.4875Z" fill="white"/>
<path d="M25.5 12.9214C25.5 19.7787 19.9064 25.3428 13 25.3428C6.09358 25.3428 0.5 19.7787 0.5 12.9214C0.5 6.0641 6.09358 0.5 13 0.5C19.9064 0.5 25.5 6.0641 25.5 12.9214Z" stroke="white"/>
</svg>
