<svg xmlns="http://www.w3.org/2000/svg" width="170.319" height="109.783" viewBox="0 0 170.319 109.783">
  <g id="Group_3" data-name="Group 3" transform="translate(-1544.738 295.822)">
    <path id="Path_3" data-name="Path 3" d="M1715.057-170.719c-1.342,3.8-2.761,7.576-4,11.41a3.773,3.773,0,0,1-4.2,2.965c-.88-.04-1.764.009-2.647.009-49.545,0-99.09-.058-148.635.1-4.41.014-6.8-1.21-7.817-5.545a92.13,92.13,0,0,0-3.026-8.941v-2.271c1.381-.064,2.762-.183,4.144-.183q81.016-.015,162.032,0c1.381,0,2.762.12,4.144.183Z" transform="translate(0 -29.805)" fill="#0b77c2"/>
    <path id="Path_4" data-name="Path 4" d="M1633.313-213.084q-34.6,0-69.2,0c-5.247,0-5.4-.191-4.47-5.328a74.417,74.417,0,0,1,58.2-60.052c4.032-.854,4.59-2.759,4.553-6.194-.061-5.654,3.494-9.705,9.072-10.947,4.641-1.034,9.866,1.744,12.108,6.378a11.263,11.263,0,0,1,.9,5.911c-.21,2.724.775,4.056,3.609,4.637,22.413,4.6,39.228,17.1,50.705,36.746a68.192,68.192,0,0,1,8.654,24.839c.471,3.267-.662,4.082-3.8,4.068C1680.2-213.133,1656.756-213.085,1633.313-213.084Zm11.464-51.837c.1.221.14.5.3.637,12.274,10.576,22.932,22.343,28.044,38.173.546,1.693,1.764,1.911,3.245,1.9,4.032-.025,8.067-.111,12.1.017,2.514.079,3.008-.7,2.273-3.1C1685.168-245.526,1664.18-262.774,1644.776-264.921Z" transform="translate(-3.516)" fill="#0b77c2"/>
  </g>
</svg>
