<svg width="118" height="82" viewBox="0 0 118 82" fill="none" xmlns="http://www.w3.org/2000/svg">
<path d="M3.58366 52.6665C2.81011 52.6665 2.06825 52.9738 1.52126 53.5208C0.974284 54.0678 0.666992 54.8096 0.666992 55.5832C0.666992 56.3567 0.974284 57.0986 1.52126 57.6456C2.06825 58.1925 2.81011 58.4998 3.58366 58.4998H12.3337C12.3337 64.6882 14.792 70.6231 19.1678 74.999C23.5437 79.3748 29.4786 81.8332 35.667 81.8332H82.3337C88.5221 81.8332 94.457 79.3748 98.8328 74.999C103.209 70.6231 105.667 64.6882 105.667 58.4998H114.417C115.191 58.4998 115.932 58.1925 116.479 57.6456C117.026 57.0986 117.334 56.3567 117.334 55.5832C117.334 54.8096 117.026 54.0678 116.479 53.5208C115.932 52.9738 115.191 52.6665 114.417 52.6665H3.58366Z" fill="white"/>
<path fill-rule="evenodd" clip-rule="evenodd" d="M56.3897 0.321289L59.0001 1.62504L61.6106 2.92879L61.6047 2.93754L61.5697 3.01046L61.4239 3.33129C60.6445 5.07143 60.0577 6.89155 59.6739 8.7592C58.9856 12.198 59.2393 15.24 61.0622 17.063C65.0726 21.0734 64.8189 26.7813 64.0489 30.6342C63.5466 33.0884 62.7576 35.4751 61.6981 37.745L61.6397 37.8704L61.6193 37.9084L61.6135 37.9229L61.6106 37.9259L59.0001 36.625L56.3897 35.3213L56.3956 35.3125L56.4306 35.2396L56.5764 34.9188C57.3557 33.1786 57.9425 31.3585 58.3264 29.4909C59.0147 26.0521 58.761 23.01 56.9381 21.1871C52.9276 17.1767 53.1814 11.4688 53.9514 7.61587C54.4537 5.16167 55.2427 2.77502 56.3022 0.505038L56.3606 0.379621L56.381 0.341706L56.3868 0.330037L56.3897 0.324204V0.321289ZM33.246 7.28629L35.6668 8.91962C38.0847 10.55 38.0876 10.5471 38.0876 10.5471V10.5442V10.5471L38.0497 10.6055C37.7937 11.0137 37.5544 11.4321 37.3322 11.8596C36.7808 12.9063 36.3409 14.0081 36.0197 15.1467C35.3197 17.7484 35.5706 19.8017 37.4022 21.155C42.1331 24.6609 41.8822 29.9021 40.9431 33.3759C40.5138 34.9195 39.9223 36.4134 39.1785 37.8325C38.8532 38.4577 38.4999 39.0679 38.1197 39.6613L38.0964 39.6963L38.0906 39.7079L38.0876 39.7109C38.0876 39.7109 38.0847 39.7167 35.6668 38.0834C33.2489 36.45 33.246 36.4529 33.246 36.4529L33.2839 36.3975L33.4414 36.1467C33.6377 35.8177 33.8244 35.4831 34.0014 35.1434C34.4535 34.2742 34.9726 33.1075 35.3139 31.8534C36.0139 29.2517 35.7631 27.2013 33.9314 25.845C29.2006 22.3392 29.4514 17.1009 30.3906 13.6242C30.8718 11.8392 31.5835 10.27 32.1551 9.16754C32.4807 8.54347 32.834 7.93425 33.2139 7.3417L33.2343 7.3067L33.2431 7.29212L33.2489 7.28629H33.246ZM82.8293 7.28629L85.2501 8.91962C87.668 10.55 87.671 10.5471 87.671 10.5471V10.5442V10.5471L87.6331 10.6055C87.3771 11.0137 87.1377 11.4321 86.9155 11.8596C86.3641 12.9063 85.9242 14.0081 85.603 15.1467C84.903 17.7484 85.1539 19.8017 86.9856 21.155C91.7164 24.6609 91.4655 29.9021 90.5264 33.3759C90.0971 34.9195 89.5056 36.4134 88.7618 37.8325C88.4375 38.4577 88.0852 39.0679 87.706 39.6613L87.6826 39.6963L87.6739 39.7079L87.671 39.7109C87.671 39.7109 87.668 39.7167 85.2501 38.0834C82.8322 36.45 82.8293 36.4529 82.8293 36.4529L82.8672 36.3975L83.0247 36.1467C83.221 35.8177 83.4078 35.4831 83.5847 35.1434C84.0368 34.2742 84.556 33.1075 84.8972 31.8534C85.5972 29.2517 85.3464 27.2013 83.5147 25.845C78.7839 22.3392 79.0347 17.1009 79.9739 13.6242C80.4551 11.8392 81.1668 10.27 81.7385 9.16754C82.0631 8.54353 82.4154 7.93431 82.7943 7.3417L82.8176 7.3067L82.8264 7.29212L82.8322 7.28629H82.8293Z" fill="white"/>
</svg>
