<svg id="Group_56" data-name="Group 56" xmlns="http://www.w3.org/2000/svg" xmlns:xlink="http://www.w3.org/1999/xlink" width="57.492" height="45.92" viewBox="0 0 57.492 45.92">
  <defs>
    <clipPath id="clip-path">
      <rect id="Rectangle_36" data-name="Rectangle 36" width="57.492" height="45.92" fill="#0b77c2"/>
    </clipPath>
  </defs>
  <g id="Group_29" data-name="Group 29" clip-path="url(#clip-path)">
    <path id="Path_32" data-name="Path 32" d="M108.973,11.346Q104.135,14.1,99.3,16.855a2.5,2.5,0,0,1-1.76.187,11.087,11.087,0,0,0-7.362,1.377c-3.22,1.756-6.394,3.6-9.6,5.375a2.086,2.086,0,0,0-1.148,1.569,4.986,4.986,0,0,1-6.286,4,5.08,5.08,0,0,1-3.4-6.353,4.965,4.965,0,0,1,6.816-3,1.773,1.773,0,0,0,1.7-.1c3.268-1.848,6.558-3.657,9.82-5.515a11.075,11.075,0,0,0,5.015-5.731A2.1,2.1,0,0,1,94.044,7.5c2.867-1.592,5.72-3.209,8.589-4.8.309-.171.676-.559,1.034-.228.277.257.02.664-.057.983-.385,1.593-.782,3.184-1.219,4.763-.2.709-.118,1.1.709,1.294,1.971.47,3.917,1.04,5.874,1.569Z" transform="translate(-51.481 -1.739)" fill="#0b77c2"/>
    <path id="Path_33" data-name="Path 33" d="M46.021,22.81a22.954,22.954,0,1,1-8.587-17.77c.918.7,1.1,1.352.384,2.246-.27.336-.522.689-.817,1-1.291,1.368-1.3,1.365-2.826.2A18.274,18.274,0,1,0,20.236,41.024c9.542,1.678,19.008-5.05,20.778-14.8a14.684,14.684,0,0,0,.073-5.792c-.238-1.092.19-1.628,1.233-1.8.255-.042.5-.133.755-.182,2.156-.412,2.627-.065,2.805,2.091.071.86.108,1.723.141,2.27" transform="translate(0 0)" fill="#0b77c2"/>
    <path id="Path_34" data-name="Path 34" d="M49.107,62.451A13.971,13.971,0,0,1,34.814,48.493a13.46,13.46,0,0,1,7.018-12.082,13.537,13.537,0,0,1,13.961-.017c1.5.819,1.476.969.009,1.821-.336.2-.682.375-1.01.582a4.945,4.945,0,0,1-4.088.7c-5.091-1.16-9.712,1.966-10.937,7.076A9.241,9.241,0,0,0,57.8,50.619a2.329,2.329,0,0,1,1.316-1.774c.813-.4,1.587-.876,2.387-1.3,1.106-.589,1.358-.462,1.317.843a13.83,13.83,0,0,1-7.951,12.689,11.545,11.545,0,0,1-5.76,1.374" transform="translate(-25.787 -25.53)" fill="#0b77c2"/>
  </g>
</svg>