<svg xmlns="http://www.w3.org/2000/svg" width="21.352" height="21.359" viewBox="0 0 21.352 21.359">
  <path id="Path_25" data-name="Path 25" d="M155.52,21.359a10.54,10.54,0,0,1-10.571-10.674A10.66,10.66,0,0,1,155.561,0a10.68,10.68,0,1,1-.042,21.359m2.387-13.02.327.449c-.372.409-.725.838-1.119,1.224-3.476,3.4-3.438,3.548.864,5.97,1.238.7,1.86.359,2.074-.928.415-2.5.76-5.021,1.172-7.527.265-1.613-.5-1.937-1.794-1.413q-3.917,1.593-7.771,3.338c-1.028.468-2.267.647-3.012,1.656,2,1.468,3.732,1.175,5.489-.258a44.207,44.207,0,0,1,3.77-2.512" transform="translate(-144.949 0)" fill="#fff"/>
</svg>