<svg width="26" height="26" viewBox="0 0 26 26" fill="none" xmlns="http://www.w3.org/2000/svg">
<path d="M18.7771 7.07358L6.95706 11.6316C6.15039 11.9556 6.15506 12.4056 6.80906 12.6062L9.84372 13.5529L16.8651 9.12292C17.1971 8.92092 17.5004 9.02958 17.2511 9.25092L11.5624 14.3849H11.5611L11.5624 14.3856L11.3531 17.5136C11.6597 17.5136 11.7951 17.3729 11.9671 17.2069L13.4411 15.7736L16.5071 18.0382C17.0724 18.3496 17.4784 18.1896 17.6191 17.5149L19.6317 8.02958C19.8377 7.20358 19.3164 6.82958 18.7771 7.07358Z" fill="white"/>
<path d="M25.5 12.9214C25.5 19.7787 19.9064 25.3428 13 25.3428C6.09358 25.3428 0.5 19.7787 0.5 12.9214C0.5 6.0641 6.09358 0.5 13 0.5C19.9064 0.5 25.5 6.0641 25.5 12.9214Z" stroke="white"/>
</svg>
