<svg xmlns="http://www.w3.org/2000/svg" width="21.378" height="21.359" viewBox="0 0 21.378 21.359">
  <path id="Path_26" data-name="Path 26" d="M227.505.1a10.59,10.59,0,0,1,10.721,10.553A10.689,10.689,0,1,1,227.505.1m3.086,8.949a7.018,7.018,0,0,0,1.264.385c.616.043,1.416.891,1.812-.133a1.35,1.35,0,0,0-1.084-2.026,2.747,2.747,0,0,1-1.868-2.146c-.235-.972-.9-.95-1.624-.9-.966.071-.8.818-.8,1.425-.013,2.54-.011,5.08-.008,7.62a1.993,1.993,0,0,1-1.755,2.259,1.788,1.788,0,0,1-2.2-1.5,1.8,1.8,0,0,1,1.5-2.375c1.219-.192,1.074-.988.946-1.7-.2-1.1-1.04-.672-1.681-.5a4.3,4.3,0,0,0-3.145,4.663,4.448,4.448,0,0,0,4.228,3.76,4.38,4.38,0,0,0,4.382-4.056c.137-1.519.026-3.061.026-4.789" transform="translate(-216.849 -0.096)" fill="#fff"/>
</svg>