<svg width="26" height="26" viewBox="0 0 26 26" fill="none" xmlns="http://www.w3.org/2000/svg">
<path d="M18.8217 9.09476C18.4043 9.27976 17.9558 9.40476 17.4843 9.46126C17.9708 9.17016 18.3347 8.71199 18.5083 8.17226C18.0512 8.44375 17.5509 8.63486 17.0293 8.73726C16.6784 8.36269 16.2138 8.11442 15.7074 8.031C15.201 7.94757 14.6813 8.03365 14.2289 8.27589C13.7764 8.51812 13.4166 8.90294 13.2053 9.37061C12.994 9.83828 12.943 10.3626 13.0602 10.8623C12.1341 10.8158 11.2281 10.575 10.401 10.1557C9.57386 9.73639 8.84417 9.14784 8.25925 8.42826C8.05925 8.77326 7.94425 9.17326 7.94425 9.59926C7.94403 9.98276 8.03847 10.3604 8.21919 10.6986C8.39991 11.0369 8.66133 11.3253 8.98025 11.5383C8.61039 11.5265 8.24869 11.4266 7.92525 11.2468V11.2768C7.92521 11.8146 8.11127 12.3359 8.45184 12.7523C8.79242 13.1686 9.26654 13.4542 9.79375 13.5608C9.45064 13.6536 9.09092 13.6673 8.74175 13.6008C8.8905 14.0636 9.18025 14.4683 9.57043 14.7582C9.96062 15.0482 10.4317 15.2088 10.9178 15.2178C10.0927 15.8655 9.07369 16.2168 8.02475 16.2153C7.83894 16.2153 7.65329 16.2045 7.46875 16.1828C8.53349 16.8673 9.77292 17.2307 11.0387 17.2293C15.3237 17.2293 17.6663 13.6803 17.6663 10.6023C17.6663 10.5023 17.6638 10.4013 17.6593 10.3013C18.1149 9.97175 18.5082 9.56371 18.8208 9.09626L18.8217 9.09476Z" fill="white"/>
<path d="M25.5 12.9214C25.5 19.7787 19.9064 25.3428 13 25.3428C6.09358 25.3428 0.5 19.7787 0.5 12.9214C0.5 6.0641 6.09358 0.5 13 0.5C19.9064 0.5 25.5 6.0641 25.5 12.9214Z" stroke="white"/>
</svg>
