<svg id="Group_55" data-name="Group 55" xmlns="http://www.w3.org/2000/svg" xmlns:xlink="http://www.w3.org/1999/xlink" width="55.835" height="39.971" viewBox="0 0 55.835 39.971">
  <defs>
    <clipPath id="clip-path">
      <rect id="Rectangle_35" data-name="Rectangle 35" width="55.835" height="39.971" fill="#0b77c2"/>
    </clipPath>
  </defs>
  <g id="Group_27" data-name="Group 27" clip-path="url(#clip-path)">
    <path id="Path_31" data-name="Path 31" d="M43,39.971A12.638,12.638,0,0,1,30.562,29.648c-.2-1.064-.6-1.464-1.664-1.37-1,.089-2.116-.209-2.987.143-1.034.418-.667,1.775-.973,2.7-1.926,5.8-7.222,9.265-13.61,8.8C5.929,39.523,1.019,34.886.156,29.24a12.765,12.765,0,0,1,.884-7.057A33.8,33.8,0,0,1,13.535,6.67,2.551,2.551,0,0,0,14.743,4.7a5.671,5.671,0,0,1,11.221.327c.046.462.016.931.057,1.392.06.667-.252,1.566.529,1.881a4.474,4.474,0,0,0,2.744.023c.426-.108.482-.575.5-.967.035-.7.025-1.395.065-2.09A5.664,5.664,0,0,1,41.092,4.7,2.654,2.654,0,0,0,42.4,6.734,33.268,33.268,0,0,1,54.864,22.406a12.761,12.761,0,0,1-9.431,17.406A19.44,19.44,0,0,1,43,39.971M33.872,27.292A9.157,9.157,0,0,0,43.23,36.5,9.217,9.217,0,1,0,43,18.073a9.214,9.214,0,0,0-9.125,9.219m-11.911,0a9.167,9.167,0,0,0-9.238-9.215A9.216,9.216,0,0,0,12.607,36.5a9.167,9.167,0,0,0,9.354-9.216" transform="translate(0 0)" fill="#0b77c2"/>
  </g>
</svg>