<svg width="285" height="262" viewBox="0 0 285 262" fill="none" xmlns="http://www.w3.org/2000/svg">
<path d="M28.7333 118.454C-34.6971 156.525 15.9057 241.06 93.0146 241.06C210.606 270.071 275 186.367 275 129.458C275 72.5493 226.95 118.454 151.626 118.454C76.3015 118.454 88.0108 67.9328 28.7333 118.454Z" fill="#65A5E1" fill-opacity="0.2"/>
<path fill-rule="evenodd" clip-rule="evenodd" d="M66.6667 65.5V32.75H55.75V229.25H66.6667V120.083H83.0417V131H159.458V112.807H175.833C178.729 112.807 181.505 113.958 183.553 116.005C185.6 118.052 186.75 120.829 186.75 123.724V125.542H175.833V169.208H252.25V125.542H241.333V120.083C241.333 89.937 216.896 65.5 186.75 65.5H159.458V54.5833H126.708V43.6667H164.917C166.364 43.6667 167.753 43.0916 168.776 42.068C169.8 41.0443 170.375 39.656 170.375 38.2083C170.375 36.7607 169.8 35.3723 168.776 34.3487C167.753 33.3251 166.364 32.75 164.917 32.75H77.5833C76.1357 32.75 74.7473 33.3251 73.7237 34.3487C72.7001 35.3723 72.125 36.7607 72.125 38.2083C72.125 39.656 72.7001 41.0443 73.7237 42.068C74.7473 43.0916 76.1357 43.6667 77.5833 43.6667H115.792V54.5833H83.0417V65.5H66.6667ZM230.417 120.083C230.417 108.502 225.816 97.3954 217.627 89.2063C209.438 81.0172 198.331 76.4167 186.75 76.4167H159.458V101.891H175.833C181.624 101.891 187.177 104.191 191.272 108.286C195.366 112.38 197.667 117.933 197.667 123.724V125.542H230.417V120.083ZM241.333 136.458H186.75V158.292H241.333V136.458ZM148.542 65.5H93.9583V120.083H148.542V65.5ZM83.0417 109.167H66.6667V76.4167H83.0417V109.167Z" fill="#804FB3"/>
<path fill-rule="evenodd" clip-rule="evenodd" d="M216.771 229.25C227.322 229.25 235.875 220.364 235.875 209.404C235.875 192.035 216.771 174.667 216.771 174.667C216.771 174.667 197.667 192.035 197.667 209.404C197.667 220.364 206.22 229.25 216.771 229.25ZM216.771 218.333C220.903 218.333 224.958 214.731 224.958 209.404C224.958 204.316 221.945 198.012 217.519 191.975C217.273 191.64 217.023 191.307 216.771 190.976C216.52 191.304 216.269 191.637 216.023 191.975C211.602 198.007 208.583 204.311 208.583 209.404C208.583 214.731 212.639 218.333 216.771 218.333Z" fill="#804FB3"/>
</svg>
